#!OML:ASF F:\VICON\USERDATA\INSTALL\rory3\rory3.ASF
:FULLY-SPECIFIED
:DEGREES
65
root 0.159679 18.59 9.76168 5.27553 -2.96935 -7.37083
lowerback 12.6523 0.790173 8.77071
upperback 0.687684 2.35773 0.908458
thorax -6.06982 0.923257 -4.39353
lowerneck -9.58493 -0.220535 -0.492746
upperneck -4.70494 -0.236463 0.601255
head 0.12355 -0.104628 0.257325
rclavicle -3.45885e-014 -3.05134e-014
rhumerus -29.7018 21.3032 -87.1541
rradius 113.365
rwrist -8.68891
rhand -34.6902 33.609
rfingers 7.12502
rthumb -7.84581 3.77458
lclavicle -3.45885e-014 -3.05134e-014
lhumerus -61.7271 -4.84793 92.1483
lradius 111.495
lwrist 31.9585
lhand -34.5415 11.2923
lfingers 7.12502
lthumb -7.70228 41.132
rfemur 31.4638 10.7957 34.4174
rtibia 5.725e-014
rfoot 41.2946 -3.38279
rtoes 18.2241
lfemur -46.4009 0.213211 -10.9085
ltibia 54.1556
lfoot 4.8811 -6.43102
ltoes -16.9275
66
root 0.15564 18.6515 10.2938 5.31475 -2.7064 -7.43312
lowerback 12.6765 0.752272 8.81238
upperback 0.758052 2.30972 0.877833
thorax -6.01152 0.903088 -4.44117
lowerneck -9.74699 -0.31477 -0.525094
upperneck -5.00136 -0.358728 0.44943
head 0.0576519 -0.166338 0.21261
rclavicle 1.70209e-014 2.00773e-014
rhumerus -30.0722 22.1662 -87.3478
rradius 112.992
rwrist -8.54042
rhand -34.6428 34.0447
rfingers 7.12502
rthumb -7.79998 4.20863
lclavicle 1.70209e-014 2.00773e-014
lhumerus -61.7014 -4.21249 91.7726
lradius 111.901
lwrist 31.7484
lhand -34.5788 10.0224
lfingers 7.12502
lthumb -7.73824 39.8608
rfemur 29.5661 11.0958 35.0295
rtibia 5.90961
rfoot 38.878 -1.84755
rtoes 18.2218
lfemur -45.2032 -0.495032 -10.662
ltibia 48.7059
lfoot 5.76005 -5.78482
ltoes -16.2508
67
root 0.148098 18.696 10.8182 5.36624 -2.70436 -7.43086
lowerback 12.7557 0.785277 8.52655
upperback 0.804167 2.32184 0.938138
thorax -6.01795 0.918458 -4.22045
lowerneck -9.91155 -0.246509 -0.644686
upperneck -5.14729 -0.256915 0.289982
head 0.0381488 -0.11445 0.186308
rclavicle -1.35671e-014 -1.88845e-014
rhumerus -30.4599 23.2106 -87.4657
rradius 112.398
rwrist -8.30195
rhand -34.8876 34.4618
rfingers 7.12502
rthumb -8.03629 4.63457
lclavicle -1.35671e-014 -1.88845e-014
lhumerus -61.4196 -3.47983 91.5102
lradius 112.148
lwrist 31.6363
lhand -35.1275 8.80979
lfingers 7.12502
lthumb -8.26786 38.628
rfemur 28.0907 11.6473 35.5903
rtibia 11.0782
rfoot 36.5594 -0.750359
rtoes 19.4041
lfemur -43.8345 -1.02844 -10.4316
ltibia 43.4584
lfoot 6.38253 -4.94559
ltoes -17.2939
68
root 0.134624 18.7207 11.3499 5.45015 -2.86417 -7.51979
lowerback 12.6696 0.967521 8.31053
upperback 0.752494 2.526 0.929616
thorax -6.0063 1.02317 -4.13996
lowerneck -9.67922 -0.218199 -0.601298
upperneck -5.37508 -0.225389 0.2237
head -0.0706022 -0.0994518 0.159777
rclavicle -2.71341e-014 -2.70347e-014
rhumerus -31.2886 23.7711 -87.8279
rradius 111.683
rwrist -8.16074
rhand -34.7105 34.5818
rfingers 7.12502
rthumb -7.86541 4.74812
lclavicle -2.71341e-014 -2.70347e-014
lhumerus -61.4417 -3.19844 91.2463
lradius 112.634
lwrist 31.5783
lhand -34.9519 8.45908
lfingers 7.12502
lthumb -8.09833 38.2839
rfemur 26.9538 12.3948 36.1849
rtibia 15.6165
rfoot 34.8792 -0.0479532
rtoes 21.5153
lfemur -42.4448 -1.35972 -10.1626
ltibia 38.7572
lfoot 6.88557 -4.20145
ltoes -16.7641
69
root 0.119584 18.7296 11.8826 5.51296 -3.10729 -7.79845
lowerback 12.5096 1.22504 8.32852
upperback 0.601796 2.85981 0.885614
thorax -6.03151 1.18024 -4.24802
lowerneck -8.54924 -0.283579 -0.245419
upperneck -6.1067 -0.351853 0.0821271
head -0.475689 -0.169279 0.0572811
rclavicle -2.09221e-014 -2.26615e-014
rhumerus -32.4442 23.905 -88.4007
rradius 110.959
rwrist -8.19763
rhand -34.5124 34.1467
rfingers 7.12502
rthumb -7.67415 4.30597
lclavicle -2.09221e-014 -2.26615e-014
lhumerus -61.603 -3.32914 90.9417
lradius 113.119
lwrist 31.4121
lhand -35.1781 9.7901
lfingers 7.12502
lthumb -8.31664 39.6064
rfemur 25.8243 13.2593 36.9166
rtibia 20.1692
rfoot 33.2428 -0.112102
rtoes 21.6326
lfemur -41.1437 -1.40709 -9.82523
ltibia 34.6204
lfoot 6.90612 -3.62304
ltoes -18.7275
70
root 0.104814 18.7398 12.4098 5.42312 -3.46068 -8.3822
lowerback 12.5161 1.40825 8.61942
upperback 0.587922 3.14796 0.933868
thorax -5.99997 1.31463 -4.40625
lowerneck -7.73075 -0.30211 0.0715289
upperneck -6.73578 -0.405619 -0.0538355
head -0.797504 -0.202397 -0.0339133
rclavicle 3.18552e-014 -2.50469e-014
rhumerus -33.5793 24.0373 -89.071
rradius 110.31
rwrist -7.94759
rhand -34.6766 33.7057
rfingers 7.12502
rthumb -7.83261 3.87081
lclavicle 3.18552e-014 -2.50469e-014
lhumerus -61.301 -3.23796 90.6081
lradius 113.371
lwrist 31.3115
lhand -35.014 10.3451
lfingers 7.12502
lthumb -8.1583 40.1676
rfemur 24.667 13.1238 37.4189
rtibia 24.6945
rfoot 31.9017 -0.258017
rtoes 21.3681
lfemur -39.4773 -1.2219 -9.18373
ltibia 31.312
lfoot 6.04596 -2.86996
ltoes -20.9007
71
root 0.0889422 18.73 12.9245 5.32967 -3.52668 -8.58413
lowerback 12.547 1.50876 8.62002
upperback 0.732343 3.27146 0.880937
thorax -5.84211 1.38601 -4.47992
lowerneck -7.16091 -0.346455 0.22909
upperneck -7.70949 -0.473493 -0.0466608
head -1.19152 -0.239979 -0.0564744
rclavicle 4.57205e-015 -5.96354e-015
rhumerus -34.2721 24.0626 -89.508
rradius 109.28
rwrist -7.68049
rhand -34.9672 33.7134
rfingers 7.12502
rthumb -8.11312 3.88911
lclavicle 4.57205e-015 -5.96354e-015
lhumerus -60.2463 -3.35273 90.288
lradius 113.299
lwrist 31.3909
lhand -34.5673 9.4857
lfingers 7.12502
lthumb -7.7271 39.3245
rfemur 23.3369 12.7544 37.6107
rtibia 29.2529
rfoot 30.9044 -0.549201
rtoes 18.4292
lfemur -38.2502 -1.36723 -8.96498
ltibia 28.7291
lfoot 4.94608 -1.67268
ltoes -18.7418
72
root 0.0717558 18.6983 13.4343 5.29249 -3.32306 -8.63082
lowerback 12.429 1.48181 8.43225
upperback 0.892378 3.18548 0.850053
thorax -5.6244 1.36349 -4.38408
lowerneck -6.55911 -0.366086 0.212771
upperneck -8.69084 -0.490305 0.0774978
head -1.60084 -0.249638 -0.013659
rclavicle 3.74709e-014 2.0276e-014
rhumerus -34.5316 24.2374 -89.7266
rradius 107.797
rwrist -7.53196
rhand -35.4902 33.9345
rfingers 7.12502
rthumb -8.61789 4.13038
lclavicle 3.74709e-014 2.0276e-014
lhumerus -59.1519 -3.42592 90.0062
lradius 113.314
lwrist 31.3651
lhand -34.7629 9.48475
lfingers 7.12502
lthumb -7.91595 39.3165
rfemur 21.8285 12.1014 37.6266
rtibia 33.822
rfoot 30.3201 -1.38159
rtoes 13.3214
lfemur -37.356 -1.41886 -9.15474
ltibia 27.0034
lfoot 4.67594 -0.509919
ltoes -18.9313
73
root 0.0620352 18.6629 13.9487 5.2771 -2.83996 -8.45894
lowerback 12.228 1.32465 8.18449
upperback 1.03645 2.90968 0.760747
thorax -5.40221 1.24797 -4.28464
lowerneck -6.72082 -0.325321 0.177177
upperneck -8.73056 -0.426737 0.211197
head -1.58621 -0.218424 0.0336147
rclavicle 5.38706e-014 7.15625e-015
rhumerus -34.8899 24.1835 -89.8677
rradius 106.559
rwrist -7.32937
rhand -36.3995 33.4512
rfingers 7.12502
rthumb -9.49526 3.68512
lclavicle 5.38706e-014 7.15625e-015
lhumerus -57.9603 -3.39813 89.7825
lradius 113.316
lwrist 31.2072
lhand -34.9813 10.876
lfingers 7.12502
lthumb -8.12672 40.6997
rfemur 20.1121 11.0296 37.2451
rtibia 38.4875
rfoot 30.5023 -2.45524
rtoes 10.7369
lfemur -36.4078 -1.21398 -9.94012
ltibia 25.6809
lfoot 4.68322 0.260631
ltoes -22.2283
